# xmcd CD database file
#
# Track frame offsets:
#	150
#	14980
#	25541
#	41586
#	51191
#	62604
#	76884
#	92541
#	104290
#	116248
#	130170
#	148465
#	160699
#	182238
#	197309
#	213012
#
# Disc length: 2974 seconds
#
# Revision: 1
# Processed by: cddbd v1.5.2PL0 Copyright (c) Steve Scherf et al.
# Submitted via: jetAudio 5
#
DISCID=d70b9c10
DTITLE=Various Artist - Jewels Deel 3
DYEAR=1900
DGENRE=
TTITLE0=I' D Rather Ride Around With You - Sanders Nichols
TTITLE1=He LL Have To Go - Allison 
TTITLE2=An OUt Of Control Raging Fire - Kostas Montgomery
TTITLE3=Bye Bye Love - Bryant
TTITLE4=Western Women - Brown Baker Dycus
TTITLE5=Harper Valley Pta - Hall
TTITLE6=Don't Take Her She's All I've Got =Williams Bonds
TTITLE7=Jambalaya - Williams
TTITLE8=Thank Got I'm A Country Boy - Sommers
TTITLE9=Blanket On The Ground - Bowling
TTITLE10=Down To New Orleans - Gill Wasner
TTITLE11=Stand By Your Man - Wynette Sherrill
TTITLE12=Rocky Top - Bryant
TTITLE13=Achy Breaky Heart - Tress
TTITLE14=Honky Tonk Twist - Lee Pitts
TTITLE15=Please Help Me I'm Falling - Robertson Blair
EXTD=
EXTT0=
EXTT1=
EXTT2=
EXTT3=
EXTT4=
EXTT5=
EXTT6=
EXTT7=
EXTT8=
EXTT9=
EXTT10=
EXTT11=
EXTT12=
EXTT13=
EXTT14=
EXTT15=
PLAYORDER=
